PathFileType	4	(X/Y/Z)	c:/Users/goper/Files/vsCode/490R/osim_files/C11/C11_Static_03.trc
DataRate	CameraRate	NumFrames	NumMarkers	Units                	OrigDataRate	OrigDataStartFrame	OrigNumFrames
120.00	120.00	8	36	mm	120.0	135	536
                Frame#	Time	LPSIS			LASIS			LTH1			LTH2			LTH3			LTH4			LLFE			LMFE			LSH1			LSH2			LSH3			LSH4			LLMAL			LMMAL			LCAL			LMTP5			LTOE			LMTP1			RPSIS			RASIS			RTH1			RTH2			RTH3			RTH4			RLFE			RMFE			RSH1			RSH2			RSH3			RSH4			RLMAL			RMMAL			RCAL			RMTP1			RTOE			RMTP5		
		X1	Y1	Z1	X2	Y2	Z2	X3	Y3	Z3	X4	Y4	Z4	X5	Y5	Z5	X6	Y6	Z6	X7	Y7	Z7	X8	Y8	Z8	X9	Y9	Z9	X10	Y10	Z10	X11	Y11	Z11	X12	Y12	Z12	X13	Y13	Z13	X14	Y14	Z14	X15	Y15	Z15	X16	Y16	Z16	X17	Y17	Z17	X18	Y18	Z18	X19	Y19	Z19	X20	Y20	Z20	X21	Y21	Z21	X22	Y22	Z22	X23	Y23	Z23	X24	Y24	Z24	X25	Y25	Z25	X26	Y26	Z26	X27	Y27	Z27	X28	Y28	Z28	X29	Y29	Z29	X30	Y30	Z30	X31	Y31	Z31	X32	Y32	Z32	X33	Y33	Z33	X34	Y34	Z34	X35	Y35	Z35	X36	Y36	Z36

135	1.11667	-369.93338	1011.95367	452.86624	-199.10747	1008.24982	370.25174	-327.26297	636.98816	299.71585	-326.58740	589.49628	294.57880	-268.62903	634.04883	283.35995	-275.62079	587.88727	283.76981	-307.55026	515.93848	280.46722	-287.28995	502.13260	388.82260	-366.25644	413.74109	268.12424	-366.87939	368.91727	263.91718	-305.92664	409.39777	255.62202	-314.49203	365.18439	253.74120	-342.66974	96.70700	290.42081	-305.66946	110.52855	381.30261	-396.65442	59.58993	349.22629	-234.51694	40.03111	247.34946	-156.74344	57.41553	309.62579	-192.44966	45.39524	359.43457	-361.12054	1025.15881	536.59546	-192.78979	998.15680	605.29913	-289.50955	650.74341	676.35199	-287.94727	606.84412	674.68127	-228.06725	645.78918	664.29010	-236.24304	603.58331	665.12030	-275.02469	517.22137	662.71173	-303.54376	490.54309	553.40717	-349.53790	414.57037	689.79291	-346.34946	368.44199	691.84570	-287.61554	410.55289	684.72321	-293.74503	363.89194	690.12164	-339.01160	98.38722	666.97412	-310.86157	105.64587	571.97382	-399.94675	60.19972	615.24683	-184.02483	49.13470	597.71729	-181.00536	61.93499	647.81799	-222.84778	39.12020	708.21362
136	1.12500	-369.97388	1011.88837	452.90543	-199.25308	1008.27698	370.20706	-327.35532	636.99438	299.70572	-326.62753	589.50012	294.58322	-268.71228	634.06360	283.34439	-275.69873	587.90045	283.75488	-307.64023	515.96381	280.45959	-287.31439	502.13339	388.82953	-366.33676	413.73199	268.12244	-366.90277	368.88480	263.90158	-305.96002	409.44257	255.60843	-314.52655	365.18112	253.72842	-342.67532	96.73344	290.41574	-305.71924	110.49265	381.33145	-396.65057	59.56517	349.26401	-234.51489	40.03721	247.35564	-156.72356	57.42979	309.64557	-192.45367	45.40060	359.46158	-361.15613	1025.07190	536.62256	-192.81567	998.17291	605.28088	-289.43286	650.73047	676.37646	-287.82285	606.81805	674.68427	-228.02972	645.75854	664.29834	-236.17224	603.56506	665.11884	-274.96991	517.19916	662.73499	-303.52405	490.57175	553.39746	-349.48233	414.54523	689.81702	-346.29257	368.36588	691.86658	-287.59503	410.53186	684.74719	-293.67044	363.85941	690.15924	-338.93564	98.29475	666.99170	-310.87811	105.65675	571.97888	-399.93811	60.16064	615.25873	-184.05789	49.12229	597.74139	-181.01761	61.91267	647.85144	-222.87827	39.10833	708.23755
137	1.13333	-370.06613	1011.82135	452.95395	-199.40221	1008.27899	370.19202	-327.43500	636.97479	299.68896	-326.68600	589.47241	294.58316	-268.81763	634.04071	283.32047	-275.74719	587.88989	283.75839	-307.73889	515.94440	280.46606	-287.36478	502.12054	388.87204	-366.40723	413.65839	268.09225	-366.93323	368.84674	263.88617	-305.99957	409.38962	255.60788	-314.55716	365.14258	253.73268	-342.68555	96.72016	290.40695	-305.71954	110.51508	381.31372	-396.69168	59.58710	349.21469	-234.53323	40.03263	247.33311	-156.71590	57.42686	309.62341	-192.47079	45.38601	359.44522	-361.21982	1024.99231	536.68182	-192.80576	998.22369	605.23950	-289.37976	650.73773	676.38306	-288.16455	606.78790	674.22656	-227.91869	645.78339	664.24707	-237.68779	602.29675	664.60376	-274.90186	517.20740	662.72943	-303.50537	490.57184	553.40320	-349.44809	414.55228	689.80334	-346.23343	368.37268	691.84265	-287.55646	410.54117	684.71490	-293.64545	363.85364	690.13519	-338.97827	98.27782	666.96185	-310.90042	105.59926	571.98199	-399.95740	60.16656	615.22278	-184.02655	49.12312	597.71552	-181.00771	61.91683	647.82056	-222.87807	39.10222	708.22272
138	1.14167	-370.14868	1011.73145	453.01031	-199.54704	1008.28180	370.16669	-327.51593	636.95032	299.67126	-326.75250	589.43829	294.57864	-268.89368	634.02350	283.32309	-275.82629	587.86230	283.75873	-307.81482	515.89667	280.47839	-287.44586	502.13766	388.82925	-366.42081	413.58560	268.06668	-366.97845	368.79993	263.89249	-306.07736	409.37207	255.59550	-314.63644	365.10260	253.72968	-342.71985	96.66113	290.40964	-305.68097	110.52901	381.27908	-396.66803	59.61045	349.13525	-234.50520	40.05182	247.30438	-156.69905	57.44289	309.57169	-192.41083	45.42990	359.37952	-361.28952	1024.91211	536.73523	-192.72745	998.34497	605.16351	-289.27676	650.75623	676.38318	-287.64667	606.85059	674.70294	-227.78860	645.87610	664.12408	-235.94995	603.66437	665.02106	-274.83203	517.26520	662.70636	-303.48883	490.54453	553.41650	-349.41553	414.58264	689.77698	-346.21490	368.44769	691.80780	-287.35458	410.64575	684.67590	-293.52679	363.90131	690.04456	-338.95740	98.36916	666.93317	-310.90900	105.58838	571.97540	-399.95230	60.21670	615.15106	-184.02177	49.14988	597.67175	-180.94351	61.95404	647.76678	-222.83601	39.11858	708.17181
139	1.15000	-370.27588	1011.68274	453.04236	-199.66440	1008.31726	370.13257	-327.54309	636.92651	299.65005	-326.78693	589.42944	294.57608	-268.99011	634.01923	283.30872	-275.88394	587.83643	283.74353	-307.90628	515.85217	280.50400	-287.43188	502.24561	388.81592	-366.43286	413.55380	268.06326	-367.00931	368.78552	263.89487	-306.13327	409.37473	255.58717	-314.68253	365.09137	253.72307	-342.70477	96.63724	290.40570	-305.67123	110.57108	381.25809	-396.67694	59.65616	349.10208	-234.50441	40.05836	247.27194	-156.68715	57.46766	309.54254	-192.37276	45.48516	359.33557	-361.37326	1024.87341	536.76208	-192.74091	998.43109	605.13324	-289.23141	650.80408	676.39276	-288.02444	606.91040	674.24866	-227.71712	645.96478	664.06696	-237.45947	602.42047	664.49438	-274.77246	517.34808	662.67841	-303.47427	490.52832	553.44275	-349.39230	414.60825	689.76355	-346.20694	368.49713	691.80042	-287.29935	410.71057	684.63702	-293.48941	363.96759	690.00891	-338.97864	98.41431	666.92224	-310.93768	105.56282	571.96252	-399.95953	60.23433	615.11115	-184.00726	49.18794	597.62756	-180.93816	61.98000	647.72168	-222.83504	39.13861	708.15796
140	1.15833	-370.36160	1011.63403	453.05826	-199.75308	1008.32538	370.12192	-327.61987	636.95502	299.64264	-326.82053	589.43372	294.57297	-269.02115	634.01331	283.28928	-275.90796	587.84283	283.74292	-307.96204	515.84650	280.50348	-287.51474	502.23413	388.78479	-366.56451	413.59445	268.06287	-367.06839	368.77927	263.88937	-306.16037	409.34473	255.57765	-314.68869	365.08276	253.71220	-342.70154	96.63377	290.41174	-305.68594	110.55668	381.25284	-396.67889	59.64373	349.11179	-234.51006	40.03562	247.28690	-156.68590	57.46253	309.54343	-192.39323	45.46947	359.34720	-361.45053	1024.81934	536.72925	-192.77954	998.44403	605.11298	-289.16534	650.77765	676.41504	-287.99020	606.88153	674.25134	-227.69882	645.96899	664.05200	-237.42365	602.42346	664.49811	-274.72467	517.33344	662.68134	-303.43015	490.51782	553.43481	-349.39005	414.58331	689.77051	-346.25037	368.46500	691.80298	-287.35059	410.63333	684.67249	-293.49118	363.93579	690.04285	-339.00555	98.41529	666.91327	-310.93570	105.54266	571.96515	-399.97940	60.20678	615.13312	-183.99968	49.16219	597.64697	-180.91492	62.00023	647.71844	-222.85927	39.10953	708.17059
141	1.16667	-370.42804	1011.61810	453.05560	-199.80688	1008.36749	370.13174	-327.64597	636.96912	299.63513	-326.84412	589.46265	294.57883	-269.03986	634.01074	283.27667	-275.91882	587.84833	283.74759	-307.99905	515.85895	280.50211	-287.51242	502.18344	388.75598	-366.59344	413.58261	268.09216	-367.07422	368.77707	263.88593	-306.29669	409.09750	255.70500	-314.66925	365.07330	253.70865	-342.69513	96.64404	290.42261	-305.63861	110.51557	381.26480	-396.63101	59.59255	349.15625	-234.46922	40.03241	247.32002	-156.63914	57.47500	309.57062	-192.33047	45.45747	359.38086	-361.51825	1024.72437	536.72009	-192.80699	998.41943	605.12415	-289.06384	650.72266	676.42700	-287.85773	606.81592	674.26703	-227.61530	645.94293	664.05334	-237.34033	602.40796	664.48560	-274.66772	517.25702	662.69171	-303.43356	490.52267	553.44287	-349.30536	414.51907	689.78540	-346.13199	368.36230	691.82159	-287.27325	410.60590	684.68817	-293.43201	363.88651	690.06799	-338.94952	98.32445	666.93073	-310.92728	105.55224	571.97968	-399.92108	60.14331	615.16400	-183.95107	49.15673	597.67383	-180.92801	61.97215	647.75903	-222.83662	39.10082	708.18658
142	1.17500	-370.54025	1011.59619	453.02350	-199.83063	1008.38617	370.14075	-327.73907	636.98114	299.63071	-326.89505	589.46008	294.58313	-269.07355	634.01886	283.25534	-275.93341	587.85358	283.74796	-308.03452	515.87042	280.49182	-287.54889	502.15417	388.71780	-366.61826	413.55298	268.11258	-367.11386	368.75079	263.88953	-306.28775	409.07724	255.69896	-314.70816	365.05557	253.68597	-342.68750	96.64801	290.43759	-305.64200	110.49508	381.26453	-396.60065	59.58357	349.18317	-234.46861	40.04238	247.33040	-156.64478	57.46169	309.58575	-192.34419	45.43181	359.40372	-361.54752	1024.67395	536.70111	-192.84389	998.41992	605.14703	-289.02106	650.67682	676.45203	-287.82065	606.79327	674.27563	-227.61681	645.93671	664.07031	-237.31689	602.38947	664.47766	-274.64755	517.21051	662.69763	-303.42972	490.50677	553.43542	-349.28613	414.46271	689.79187	-346.10117	368.31833	691.82544	-287.30090	410.56046	684.70209	-293.43173	363.84985	690.08643	-338.91400	98.27113	666.93762	-310.89932	105.55962	571.99371	-399.92441	60.14161	615.19031	-183.95651	49.16252	597.69116	-180.92722	61.94973	647.78223	-222.83331	39.09723	708.19000
